# xmcd CD database file
#
# Track frame offsets:
#	150
#	15492
#	34735
#	48590
#	61940
#	84482
#	112317
#	151700
#
# Disc length: 2496 seconds
#
# Revision: 0
# Processed by: cddbd v1.4PL0 Copyright (c) Steve Scherf et al.
# Submitted via: CDex 1.50
#
DISCID=5c09be08
DTITLE=Matthew Gee - Jazz By Gee
DYEAR=1956
DGENRE=Jazz
TTITLE0=out of nowhere
TTITLE1=I'll remember april
TTITLE2=joram
TTITLE3=sweet georgia brown
TTITLE4=Lover Man
TTITLE5=Gee!
TTITLE6=kingston lounge
TTITLE7=the boys from brooklyn
EXTD=YEAR: 1956
EXTT0=
EXTT1=
EXTT2=
EXTT3=
EXTT4=
EXTT5=
EXTT6=
EXTT7=
PLAYORDER=
